<?xml version="1.0" encoding="utf-8"?>
<!-- Generator: Adobe Illustrator 23.0.3, SVG Export Plug-In . SVG Version: 6.00 Build 0)  -->
<svg version="1.1" id="Capa_1" xmlns="http://www.w3.org/2000/svg" xmlns:xlink="http://www.w3.org/1999/xlink" x="0px" y="0px"
	 viewBox="0 0 487 487" style="enable-background:new 0 0 487 487;" xml:space="preserve">
<style type="text/css">
	.st0{fill:#616161;}
</style>
<g>
	<path class="st0" d="M484.7,213.5c-4.5-40.9-19.5-78.2-43.9-111.5c-39.2-53.6-91.6-86.3-157.1-97.7C270.7,2,257.3,1.4,244.1,0
		c-0.9,0-1.8,0-2.6,0c-12.3,1.4-24.7,2.2-37,4.1C78.7,23.4-12.3,142.6,2.1,269.4c6.9,60.5,32.2,112.1,77.2,153.3
		c53.5,48.9,117.1,69.9,189.1,63.1c55.3-5.3,103.6-27.6,143.3-66.5C469.5,362.7,493.5,293.6,484.7,213.5z M433.4,338.1
		c-6.2-10.7-13.9-25.7-17.4-38.5c-5-18.5-17.1-0.6-18.2,11.5s-9.1,21.2-25.2,3C356.5,296,353.5,300,348.4,300s-14.1,12.1-12.1,68.6
		c1.4,40.3,17.3,46.7,27.7,49.7c-19.3,13.3-41.5,23.7-66.4,30C202.5,472.4,105.4,428.6,60,341.5c-42.3-81.2-21.7-173.1,21.3-223.6
		c1.2,9.1,2.3,17.3,3.2,25.5c2.6,22.4,0.6,44.5-3.9,66.5c-1,4.7-0.6,10,0.6,14.6c0.7,2.5,4.5,5.5,7.1,5.7c2.1,0.2,5.7-3.1,6.5-5.5
		c1.5-4.4,1.6-9.3,2-14.1c0.3-3.3,0.3-6.7,0.6-11.9c3.4,2.8,5.9,4.4,8,6.5c5.3,5.3,10.6,10.6,15.4,16.3c2.1,2.5,4.3,6.1,4.3,9.1
		c-0.1,6.5,2.7,11,6.2,16.1c3.9,5.7,5.6,12.9,8.1,19.5c1,2.8,1.3,5.9,2.5,8.5c2.7,5.7,6.7,9.6,13.6,10c7.3,0.5,10,3.3,11.1,10.7
		c-1.9,0.2-3.7,0.5-5.6,0.6c-8.9,0.8-13.3,4.9-12.9,13.9c0.7,17.8,7.1,33.3,20.3,45.7c3.6,3.4,7.5,6.6,11,10.1
		c8.1,8,10.9,17.3,7,28.4c-1.9,5.2-4.4,10.4-5.2,15.8c-0.8,5.5-0.8,11.5,0.4,16.9c1.3,5.6,0.8,17.9,6.6,16.9
		c10.3-1.8,16.2,0.2,17-11.3c0.2-2.2,0-2.5-0.6-4.5c-3.1-10.8,10.8-41.4,19.1-47c7.1-4.8,14.2-9.6,20.7-15.2
		c9.3-8.1,13.4-18.5,9.5-30.6c-3.7-11.4,0.6-19.8,8.6-27.1c8.1-7.5,13.5-16.1,12.9-27.6s-8.1-19.8-17.9-18.7
		c-4.8,0.6-9.4,2.9-14.1,4.5c-6.9,2.3-13.6,5.6-20.6,6.8c-9.9,1.8-16-4.7-20.4-12.5c-3.5-6.3-4.7-6.8-10.9-2.9
		c-5.2,3.3-10.4,6.7-15.8,9.7c-5.6,3.1-8.6,2-12.9-2.7c-2.5-2.8-6.1-4.7-9.4-6.7c-2.4-1.4-5.5-1.8-7.4-3.6c-2.5-2.4-6.1-6.1-5.7-8.7
		c0.4-3.1,4-7,7.2-8.3c5.4-2.2,11.6-2.6,17.4-3.8c3.1-0.7,6.2-1.4,9.2-2.5c4-1.6,3.8-4.2,0.8-6.7c-1.5-1.2-3.4-2.1-5.2-2.8
		c-8.9-3.6-17.8-7-26.6-10.6c-2.2-0.9-4.4-2-6.3-3.3c-5.6-3.7-6.2-7.7-1.2-12.2c20-17.6,43.3-22.8,63.9,0.6
		c6.4,7.2,10.7,16.3,16.8,23.9c4.8,6,10.2,11.6,16.3,16.2c2.5,1.9,8.1,2.2,10.9,0.7c4.1-2.3,4.3-7.4,2.2-11.8
		c-1.8-3.7-3.9-7.4-6.5-10.7c-11.7-15.1-10.9-44.6,12.1-56.9c7.7-4.1,15.4-8.5,19.1-19.5c-4.4,1.2-7.6,2-10.7,2.9
		c-17.5,5.4-5.3-7.6,2.7-9.9c4.9-1.4-4.4-5.1-4.4-5.1c0.2-0.4,6.1-2.1,12.7-4.9c4.5-1.9,9.2-4.1,12.9-7.2c2.4-2,3.4-5.8,5-8.8
		c-0.4-0.5-0.8-0.9-1.2-1.4c-4.6,0.6-9.2,1.3-13.8,1.8c-7.8,0.9-9.7-0.7-10.4-8.6c-0.5-5.4-6-8.3-11.1-5.6c-3.5,1.9-6.5,4.6-9.8,6.8
		c-7.7,5-13.5,3-16.5-5.6c-1.8-5.1-4.3-6.1-9-3.2c-2.4,1.4-4.4,3.5-6.8,4.9c-4,2.2-8,4.4-12.2,5.9c-4.1,1.5-9.1,2.5-11.9-2
		c-3-4.9-0.4-9.6,3.4-12.7c4.7-3.8,10.2-6.8,15.5-9.8c7.6-4.3,15.7-7.8,23-12.5c5.4-3.4,7.7-9,6-15.7c-1.5-5.6-5.2-7.5-10.4-4.9
		c-4.3,2.1-8,5.4-12.4,7.1c-3.2,1.2-7.2,1.2-10.6,0.6c-1.3-0.2-2.6-3.7-2.7-5.8c0-1.2,2.4-3.2,3.9-3.5c10.6-1.7,21.3-3,31.9-4.3
		c1.4-0.2,3.5,0.7,4.4,1.8c7,8.9,16.9,13.2,27.2,16.3c8.7,2.6,9.9,1.4,11.1-7.8c11.2-2.6,22.5-7.8,33.7-0.7
		c6.2,3.9,11.9,8.9,17.2,14.1c1.3,1.3,0.5,5.3-0.1,7.8c-0.8,3.4-2.7,6.6-3.6,10.1c-1.7,6.7,2.6,11.9,9.5,11.8c2.2,0,4.4-0.5,6.5-0.6
		c6.4-0.3,8.6,2.1,8.1,8.6c-0.8,9.1,0.7,10.2,9.9,8.7c2.6-0.4,5.7,0.8,8.4,1.7c1.6,0.6,2.9,2.1,4.3,3.2c8.6,6.5,15.1,4.1,17.6-6.6
		c0.3-1.2,0.2-2.4,0.5-3.6c1-4.8,3.7-6,6.9-2.6c6.8,7.2,13.2,14.8,20.1,22.7c-7.4,6.8-7.7,15.1-6,23.2c1.8,9-0.5,16.9-4.1,24.8
		c-3.4,7.6-7.2,15.2-9.4,23.1c-3.4,12,0.5,17.4,12.6,20.1c11.6,2.5,13.5,4.9,13.9,16.2c0.6,15.4,8.5,26.1,22.1,32.9
		c3,1.5,6.2,2.6,9.3,3.9C451.8,289.8,445,314.6,433.4,338.1z"/>
</g>
</svg>
