<?xml version="1.0" encoding="utf-8"?>
<!-- Generator: Adobe Illustrator 23.0.3, SVG Export Plug-In . SVG Version: 6.00 Build 0)  -->
<svg version="1.1" id="圖層_1" xmlns="http://www.w3.org/2000/svg" xmlns:xlink="http://www.w3.org/1999/xlink" x="0px" y="0px"
	 viewBox="0 0 32 32" style="enable-background:new 0 0 32 32;" xml:space="preserve">
<style type="text/css">
	.st0{fill:#231F20;}
</style>
<g id="search">
	<path class="st0" d="M31.6,29.9l-12-11.8c3.9-4.7,3.2-11.7-1.5-15.6S6.4-0.7,2.5,4S-0.7,15.7,4,19.6c2,1.6,4.5,2.5,7.1,2.5
		c2.4,0,4.8-0.8,6.8-2.3l12.1,11.8c0.5,0.5,1.3,0.5,1.7,0C32.1,31.2,32.1,30.4,31.6,29.9C31.6,29.9,31.6,29.9,31.6,29.9z M2.5,11.1
		c0-4.8,3.9-8.6,8.6-8.6s8.6,3.9,8.6,8.6s-3.9,8.6-8.6,8.6S2.5,15.8,2.5,11.1z"/>
</g>
</svg>
